<svg xmlns="http://www.w3.org/2000/svg" width="536.281" height="456.034"><path d="M63.308 93.914c-11.507-5.243-23.234-11.156-33.787-19.529a72.434 72.434 0 01-13.985-14.609 74.988 74.988 0 01-9.14-17.391 108.123 108.123 0 01-5.924-26C-.211 9.605-.111 4.819.41 2.232 1.526-2.99 4.221.804 8.74 15.025c1.316 4.127 3.133 10.054 5.3 15.362a82.226 82.226 0 0012.008 21.436c4.966 6.253 11.328 11.411 18.184 15.968A136.591 136.591 0 0064.84 78.759c3.619 1.652 7.233 3.333 10.977 4.761 3.718 1.482 7.422 3.007 11.242 4.293a474.218 474.218 0 0046.86 13.694c34.99 8.551 70.99 15.738 106.05 27.806a392.5 392.5 0 01118.69 66.673 331.162 331.162 0 0152.41 54.773 388.783 388.783 0 0136.58 57.563c10.53 19.88 20.03 39.85 30.99 58.575a283.578 283.578 0 0017.03 26.017 175.134 175.134 0 0020.07 22.728c14.59 13.837 31.6 24.877 50.27 30.607 5.62 1.91 13.23 2.9 16.91 3.78 4.75 1.13 8.63 2.23 8.86 3.3.08.37-1.38.85-3.53 1.38-1.08.26-2.33.53-3.64.79-1.3.21-2.67.27-3.97.37-5.43.58-12.97-.49-19.47-1.99-17.35-4.42-33.3-13.22-47.08-24.32a176.135 176.135 0 01-19.32-18.2 198.492 198.492 0 01-16.36-20.808c-20.08-28.989-33.93-61.163-51.29-90.675a352.987 352.987 0 00-109.718-115.632 352.931 352.931 0 00-71.1-36.461c-25.03-9.267-51.14-15.9-77.55-22.216-35.12-8.561-71.07-16.914-105.443-31.653z" fill="#fff" fill-rule="evenodd"/></svg>