<svg width="932" height="990" viewBox="0 0 932 990" fill="none" xmlns="http://www.w3.org/2000/svg">
<g clip-path="url(#clip0)">
<path fill-rule="evenodd" clip-rule="evenodd" d="M1264.02 279.514C1333.62 374.568 1379 489.744 1378.65 607.549C1378.3 725.354 1328.91 844.954 1236.93 918.637C1144.95 992.32 1009.86 1013.34 905.032 959.517C786.942 898.894 726.212 762.331 615.002 689.887C528.742 633.703 420.549 621.935 317.767 628.108C270.93 630.921 224.035 637.12 177.249 633.58C130.463 630.04 82.637 615.604 49.011 582.906C11.833 546.754 -3.33501 491.981 0.621985 440.281C8.93498 331.644 88.142 216.919 186.144 170.188C378.756 78.342 560.044 -18.776 780.344 3.109C971.812 22.137 1150.42 124.368 1264.02 279.514Z" fill="#F2CE94"/>
<g clip-path="url(#clip1)">
<path fill-rule="evenodd" clip-rule="evenodd" d="M458.308 588.914C446.801 583.671 435.074 577.758 424.521 569.385C419.199 565.193 414.492 560.276 410.536 554.776C406.74 549.405 403.667 543.558 401.396 537.385C398.356 528.996 396.366 520.263 395.472 511.385C394.789 504.605 394.889 499.819 395.41 497.232C396.526 492.01 399.221 495.804 403.74 510.025C405.056 514.152 406.873 520.079 409.04 525.387C411.946 533.093 415.994 540.319 421.048 546.823C426.014 553.076 432.376 558.234 439.232 562.791C445.776 567.028 452.67 570.698 459.84 573.759C463.459 575.411 467.073 577.092 470.817 578.52C474.535 580.002 478.239 581.527 482.059 582.813C497.434 588.179 513.074 592.75 528.919 596.507C563.909 605.058 599.909 612.245 634.969 624.313C678.114 639.454 718.281 662.018 753.659 690.986C773.168 707.177 790.753 725.555 806.069 745.759C819.925 763.838 832.165 783.1 842.649 803.322C853.179 823.202 862.679 843.172 873.639 861.897C878.836 870.874 884.521 879.56 890.669 887.914C896.689 896.056 903.405 903.66 910.739 910.642C925.329 924.479 942.339 935.519 961.009 941.249C966.629 943.159 974.239 944.149 977.919 945.029C982.669 946.159 986.549 947.259 986.779 948.329C986.859 948.699 985.399 949.179 983.249 949.709C982.169 949.969 980.919 950.239 979.609 950.499C978.309 950.709 976.939 950.769 975.639 950.869C970.209 951.449 962.669 950.379 956.169 948.879C938.819 944.459 922.869 935.659 909.089 924.559C902.2 918.987 895.742 912.903 889.769 906.359C883.859 899.795 878.393 892.843 873.409 885.551C853.329 856.562 839.479 824.388 822.119 794.876C794.841 748.47 757.312 708.918 712.401 679.244C690.158 664.438 666.305 652.206 641.301 642.783C616.271 633.516 590.161 626.883 563.751 620.567C528.631 612.006 492.681 603.653 458.308 588.914Z" fill="white"/>
</g>
</g>
<defs>
<clipPath id="clip0">
<rect width="931.062" height="989.688" fill="white"/>
</clipPath>
<clipPath id="clip1">
<rect width="536.281" height="456.034" fill="white" transform="translate(395 495)"/>
</clipPath>
</defs>
</svg>
