<svg xmlns="http://www.w3.org/2000/svg" width="92" height="179" viewBox="0 0 92 179">
  <defs>
    <style>
      .cls-1 {
        fill: #fff;
        fill-rule: evenodd;
      }
    </style>
  </defs>
  <path id="Shape" class="cls-1" d="M1449.59,443.8a4.4,4.4,0,1,1,4.41-4.4A4.4,4.4,0,0,1,1449.59,443.8Zm0,42.551a4.4,4.4,0,1,1,4.41-4.4A4.4,4.4,0,0,1,1449.59,486.346Zm0,42.551a4.4,4.4,0,1,1,4.41-4.4A4.4,4.4,0,0,1,1449.59,528.9Zm0,42.552a4.4,4.4,0,1,1,4.41-4.4A4.4,4.4,0,0,1,1449.59,571.449Zm0,42.551a4.4,4.4,0,1,1,4.41-4.4A4.4,4.4,0,0,1,1449.59,614ZM1417.2,443.8a4.4,4.4,0,1,1,4.4-4.4A4.4,4.4,0,0,1,1417.2,443.8Zm0,42.551a4.4,4.4,0,1,1,4.4-4.4A4.4,4.4,0,0,1,1417.2,486.346Zm0,42.551a4.4,4.4,0,1,1,4.4-4.4A4.4,4.4,0,0,1,1417.2,528.9Zm0,42.552a4.4,4.4,0,1,1,4.4-4.4A4.4,4.4,0,0,1,1417.2,571.449Zm0,42.551a4.4,4.4,0,1,1,4.4-4.4A4.4,4.4,0,0,1,1417.2,614Zm-32.4-170.2a4.4,4.4,0,1,1,4.41-4.4A4.4,4.4,0,0,1,1384.8,443.8Zm0,42.551a4.4,4.4,0,1,1,4.41-4.4A4.4,4.4,0,0,1,1384.8,486.346Zm0,42.551a4.4,4.4,0,1,1,4.41-4.4A4.4,4.4,0,0,1,1384.8,528.9Zm0,42.552a4.4,4.4,0,1,1,4.41-4.4A4.4,4.4,0,0,1,1384.8,571.449Zm0,42.551a4.4,4.4,0,1,1,4.41-4.4A4.4,4.4,0,0,1,1384.8,614Zm-32.39-170.2a4.4,4.4,0,1,1,4.4-4.4A4.4,4.4,0,0,1,1352.41,443.8Zm0,42.551a4.4,4.4,0,1,1,4.4-4.4A4.4,4.4,0,0,1,1352.41,486.346Zm0,42.551a4.4,4.4,0,1,1,4.4-4.4A4.4,4.4,0,0,1,1352.41,528.9Zm0,42.552a4.4,4.4,0,1,1,4.4-4.4A4.4,4.4,0,0,1,1352.41,571.449Zm0,42.551a4.4,4.4,0,1,1,4.4-4.4A4.4,4.4,0,0,1,1352.41,614Z" transform="translate(-1348 -435)"/>
</svg>
